<svg xmlns="http://www.w3.org/2000/svg" viewBox="0 0 1042.1 242.0">
<defs>
  <linearGradient id="iconGrad" x1="0%" y1="0%" x2="100%" y2="100%">
    <stop offset="0%" stop-color="#00D2FF"/>
    <stop offset="100%" stop-color="#0073FF"/>
  </linearGradient>
</defs>
<g transform="translate(30,30)">
  <svg x="0" y="0" width="187.14" height="182.00" viewBox="0 0 255 248">
    <g transform="translate(0,248) scale(0.1,-0.1)">
      <path d="M436 2454 c-178 -43 -335 -199 -375 -374 -15 -65 -13 -177 4 -243 43
-166 178 -306 343 -357 76 -24 220 -28 297 -10 134 33 282 145 339 257 175
347 -72 746 -461 742 -48 0 -114 -7 -147 -15z" fill="#00E5FF"/>
      <path d="M433 1256 c-142 -35 -291 -149 -356 -274 -64 -121 -67 -148 -67 -555
l0 -366 24 -28 24 -28 504 -3 c276 -1 513 0 526 3 12 3 31 14 42 25 19 19 20
35 20 409 0 360 -1 394 -20 453 -53 174 -214 319 -402 363 -76 18 -223 18
-295 1z" fill="#00E5FF"/>
      <path d="M1444 2436 l-34 -34 0 -488 c0 -467 1 -490 20 -521 41 -69 126 -82
225 -35 33 16 164 96 290 177 431 278 445 290 445 374 0 30 -7 48 -27 70 -16
17 -122 91 -238 165 -521 335 -502 325 -593 326 -48 0 -58 -4 -88 -34z" fill="url(#iconGrad)"/>
      <path d="M1803 1255 c-149 -32 -309 -156 -371 -286 -57 -120 -62 -159 -62
-535 0 -224 4 -352 11 -373 22 -62 16 -61 579 -61 546 0 554 1 580 49 17 32
13 711 -5 794 -41 197 -199 353 -411 407 -91 23 -227 25 -321 5z" fill="url(#iconGrad)"/>
    </g>
  </svg>
  <svg x="227.14" y="0" width="755" height="182" viewBox="0 0 755 182">
    <g transform="translate(0,182) scale(0.1,-0.1)">
      <path d="M71 1784 l-31 -26 0 -787 c0 -778 0 -787 20 -809 19 -21 30 -22 155
-22 125 0 136 1 155 22 20 21 20 33 21 557 0 295 3 529 6 521 4 -8 11 -19 18
-25 6 -5 29 -35 51 -65 22 -30 72 -98 110 -150 39 -52 95 -129 125 -170 31
-41 95 -129 144 -195 49 -66 112 -151 140 -190 157 -213 201 -272 220 -287 14
-13 39 -17 90 -18 53 0 66 -3 55 -11 -12 -8 -9 -9 10 -4 14 3 54 8 89 11 75 6
99 16 111 50 6 15 10 332 10 795 l0 771 -29 29 c-29 29 -31 29 -141 29 -115 0
-161 -12 -174 -45 -3 -8 -6 -243 -6 -520 -1 -294 -5 -505 -10 -505 -5 0 -41
44 -79 98 -39 53 -121 165 -183 249 -62 84 -197 266 -300 406 -103 140 -203
268 -223 286 l-36 31 -144 0 c-140 0 -144 -1 -174 -26z M2217 1326 c-193 -44
-365 -204 -432 -401 -23 -68 -34 -195 -23 -283 22 -181 108 -319 278 -443 69
-50 220 -99 308 -99 40 0 51 -3 46 -12 -6 -10 -4 -10 7 -2 8 6 39 12 69 13
103 4 247 54 344 119 51 35 144 132 150 158 9 34 -9 61 -52 80 -53 22 -182 64
-198 64 -8 0 -40 -24 -73 -54 -72 -66 -112 -81 -221 -81 -110 1 -190 34 -255
107 -43 48 -71 106 -62 131 3 9 76 11 325 9 177 -2 365 -1 418 3 129 10 134
16 134 145 0 156 -55 285 -170 399 -107 106 -225 151 -410 157 -81 2 -145 -1
-183 -10z m80 -283 c-3 -5 38 -8 92 -8 85 0 101 -3 136 -25 58 -35 125 -107
125 -134 0 -3 -121 -6 -270 -6 -158 0 -270 4 -270 9 0 17 67 96 79 93 7 -1 10
2 7 7 -9 14 45 53 66 48 11 -3 18 0 18 9 0 8 5 14 11 14 5 0 8 -3 6 -7z M4700
1323 c-195 -42 -365 -196 -435 -393 -43 -122 -38 -307 11 -439 50 -134 172
-273 287 -326 26 -13 48 -27 48 -31 1 -5 3 -11 6 -14 4 -3 3 1 -1 7 -9 16 -13
17 62 -7 92 -29 283 -28 378 1 116 36 183 76 264 158 154 155 217 356 176 561
-51 251 -222 429 -464 484 -86 19 -241 19 -332 -1z m300 -303 c5 -10 27 -26
49 -37 53 -26 84 -65 111 -140 63 -173 -33 -388 -194 -433 -61 -17 -190 -9
-235 14 -54 29 -118 102 -142 164 -31 78 -32 206 -1 274 34 76 144 183 166
161 3 -4 6 -2 6 3 0 6 35 11 77 13 43 1 78 3 80 5 9 9 75 -9 83 -24z M6835
1333 c-184 -41 -280 -94 -346 -190 -41 -58 -38 -84 12 -116 22 -15 47 -27 55
-27 9 0 12 -4 9 -10 -3 -6 1 -7 10 -4 9 4 21 0 28 -8 14 -17 51 -33 42 -18 -4
6 2 7 18 1 32 -13 61 -4 97 27 39 34 109 52 200 51 77 -2 99 -8 133 -40 11
-10 24 -16 28 -13 4 2 13 -12 20 -31 7 -19 17 -35 21 -35 4 0 8 -7 8 -15 0
-13 -28 -15 -192 -15 -217 -1 -250 -4 -328 -31 -108 -38 -197 -116 -242 -216
-18 -40 -22 -67 -23 -153 0 -101 1 -108 34 -167 18 -34 59 -87 91 -117 32 -30
55 -58 52 -61 -4 -3 1 -3 10 0 9 4 19 1 24 -6 5 -8 3 -10 -6 -4 -9 5 -11 4 -6
-3 4 -7 14 -12 22 -12 8 0 27 -8 41 -17 15 -10 28 -13 30 -8 2 6 34 8 79 5
126 -8 254 29 345 101 22 17 44 27 50 23 7 -4 9 -3 5 4 -3 6 -2 13 3 16 5 4
12 -12 16 -33 9 -55 29 -69 101 -73 50 -2 61 -6 57 -18 -4 -13 -3 -13 9 0 8
10 34 16 68 18 39 2 60 8 77 24 l23 21 0 366 c0 397 -3 422 -57 529 -36 73
-118 161 -181 195 -82 44 -190 67 -311 66 -58 -1 -115 -3 -126 -6z m335 -706
c0 -133 -127 -238 -290 -240 -77 -1 -122 19 -150 66 -35 56 -19 115 42 159 39
27 88 33 271 33 116 0 127 -2 127 -18z M5625 1295 l-25 -24 0 -544 c0 -533 0
-544 20 -565 15 -16 33 -22 61 -22 26 0 42 -5 45 -15 5 -12 11 -13 37 -2 18 8
57 14 87 16 44 1 59 7 78 27 22 25 22 28 22 337 0 178 4 328 10 348 14 49 51
103 75 108 11 2 25 11 32 20 8 10 12 12 13 4 0 -18 15 -16 34 3 12 11 44 17
124 21 98 4 109 7 130 29 20 23 22 35 22 130 0 98 -2 107 -25 129 -22 23 -32
25 -119 25 -125 0 -193 -24 -258 -91 l-48 -49 0 45 c0 35 -6 52 -25 70 -23 24
-30 25 -145 25 -115 0 -122 -1 -145 -25z M3110 1116 c0 -2 8 -10 18 -17 15
-13 16 -12 3 4 -13 16 -21 21 -21 13z M3165 1050 c10 -11 20 -20 23 -20 3 0
-3 9 -13 20 -10 11 -20 20 -23 20 -3 0 3 -9 13 -20z M4029 1013 c-13 -16 -12
-17 4 -4 9 7 17 15 17 17 0 8 -8 3 -21 -13z M3190 1016 c0 -2 8 -10 18 -17 15
-13 16 -12 3 4 -13 16 -21 21 -21 13z M3220 976 c0 -2 8 -10 18 -17 15 -13 16
-12 3 4 -13 16 -21 21 -21 13z M3250 936 c0 -2 8 -10 18 -17 15 -13 16 -12 3
4 -13 16 -21 21 -21 13z M3304 867 c16 -20 30 -37 33 -37 7 0 -36 58 -49 66
-7 4 1 -9 16 -29z M3380 766 c0 -2 8 -10 18 -17 15 -13 16 -12 3 4 -13 16 -21
21 -21 13z M3605 500 c-3 -6 1 -7 9 -4 18 7 21 14 7 14 -6 0 -13 -4 -16 -10z
M3579 463 c-13 -16 -12 -17 4 -4 16 13 21 21 13 21 -2 0 -10 -8 -17 -17z
M3710 376 c0 -2 8 -10 18 -17 15 -13 16 -12 3 4 -13 16 -21 21 -21 13z M3790
270 c12 -16 24 -30 26 -30 3 0 -4 14 -16 30 -12 17 -24 30 -26 30 -3 0 4 -13
16 -30z M3439 273 c-13 -16 -12 -17 4 -4 16 13 21 21 13 21 -2 0 -10 -8 -17
-17z M3409 233 c-13 -16 -12 -17 4 -4 16 13 21 21 13 21 -2 0 -10 -8 -17 -17z
M3820 226 c0 -2 8 -10 18 -17 15 -13 16 -12 3 4 -13 16 -21 21 -21 13z M3073
143 c9 -2 25 -2 35 0 9 3 1 5 -18 5 -19 0 -27 -2 -17 -5z M3143 143 c9 -2 23
-2 30 0 6 3 -1 5 -18 5 -16 0 -22 -2 -12 -5z M3238 143 c17 -2 47 -2 65 0 17
2 3 4 -33 4 -36 0 -50 -2 -32 -4z M4018 143 c7 -3 16 -2 19 1 4 3 -2 6 -13 5
-11 0 -14 -3 -6 -6z" fill="#1A1A2E" stroke="#1A1A2E" stroke-width="4"/>
      <path d="M3034 1265 c-15 -23 -15 -27 -2 -43 8 -9 22 -26 31 -37 8 -11 40 -50
71 -86 30 -37 52 -69 49 -73 -4 -3 -2 -6 4 -6 10 0 129 -153 168 -215 10 -16
26 -36 36 -43 17 -11 5 -30 -135 -217 -220 -291 -250 -338 -236 -364 16 -31
51 -36 257 -32 l73 1 51 70 c28 39 55 70 61 70 6 0 9 3 5 6 -3 3 7 20 23 38
17 17 30 36 30 42 0 7 7 14 15 18 8 3 15 10 15 17 0 15 61 99 73 99 5 0 7 -9
4 -20 -3 -11 0 -23 5 -27 7 -4 8 -1 3 7 -5 7 -3 11 3 9 10 -4 88 -107 190
-251 38 -54 55 -70 90 -82 23 -8 42 -12 42 -8 0 4 18 8 40 8 26 1 38 -2 33 -9
-4 -7 0 -8 11 -4 10 4 49 7 87 7 56 0 73 4 89 20 26 26 25 48 -4 85 -13 17
-55 71 -92 120 -104 139 -224 296 -261 341 -33 41 -33 41 -13 59 11 10 18 20
16 23 -3 2 4 14 16 26 11 11 37 46 59 77 21 31 46 65 56 75 10 9 22 25 28 35
5 9 43 57 82 106 83 101 97 137 63 165 -19 15 -42 18 -166 18 l-143 0 -48 -58
c-26 -32 -82 -106 -122 -165 -63 -90 -76 -105 -84 -90 -25 46 -198 272 -225
294 -22 17 -42 19 -178 19 -153 0 -154 0 -170 -25z" fill="#29C5F6"/>
    </g>
  </svg>
</g>
</svg>
